<svg height="512pt" viewBox="0 0 512 512" width="512pt" xmlns="http://www.w3.org/2000/svg"><path d="m504.5 497h-16.546875v-184.886719c0-1.601562-.511719-3.160156-1.464844-4.449219l-224.449219-304.613281c-1.414062-1.917969-3.65625-3.050781-6.039062-3.050781s-4.625 1.132812-6.039062 3.050781l-224.449219 304.613281c-.953125 1.289063-1.464844 2.847657-1.464844 4.449219v184.886719h-16.546875c-4.140625 0-7.5 3.359375-7.5 7.5s3.359375 7.5 7.5 7.5h497c4.140625 0 7.5-3.359375 7.5-7.5s-3.359375-7.5-7.5-7.5zm-465.453125-182.421875 216.953125-294.433594 216.953125 294.433594v182.421875h-17.066406v-128.773438c0-4.140624-3.355469-7.5-7.5-7.5-4.140625 0-7.5 3.359376-7.5 7.5v128.773438h-145.324219v-25.082031h32.582031c12.976563 0 23.53125-10.554688 23.53125-23.53125v-14.085938c0-4.421875 1.722657-8.578125 4.847657-11.703125l25.289062-25.285156c3.152344 1.574219 6.703125 2.460938 10.460938 2.460938 12.976562 0 23.53125-10.554688 23.53125-23.53125 0-12.972657-10.554688-23.53125-23.53125-23.53125-12.976563 0-23.53125 10.558593-23.53125 23.53125 0 3.757812.890624 7.308593 2.460937 10.464843l-25.285156 25.285157c-5.957031 5.957031-9.242188 13.878906-9.242188 22.308593v14.085938c0 4.707031-3.828125 8.535156-8.53125 8.535156h-32.582031v-62.703125c0-4.417969 1.722656-8.574219 4.847656-11.699219l49.335938-49.335937c3.152344 1.574218 6.707031 2.460937 10.464844 2.460937 12.972656 0 23.53125-10.554687 23.53125-23.53125 0-12.976562-10.558594-23.53125-23.53125-23.53125-12.976563 0-23.535157 10.554688-23.535157 23.53125 0 3.757813.890625 7.308594 2.464844 10.460938l-43.574219 43.578125v-76.140625c0-4.421875 1.71875-8.578125 4.84375-11.703125l9.257813-9.253906c3.152343 1.574218 6.703125 2.460937 10.460937 2.460937 12.976563 0 23.53125-10.554687 23.53125-23.53125s-10.554687-23.53125-23.53125-23.53125c-12.972656 0-23.53125 10.554687-23.53125 23.53125 0 3.757813.890625 7.308594 2.464844 10.460937l-9.257812 9.253907c-5.957032 5.960937-9.238282 13.882812-9.238282 22.308593v206.992188h-17.066406v-290.847656c9.308594-3.136719 16.03125-11.945313 16.03125-22.296875 0-12.976563-10.554688-23.535157-23.53125-23.535157s-23.53125 10.558594-23.53125 23.535157c0 10.351562 6.722656 19.160156 16.03125 22.296875v290.847656h-17.0625v-102.78125c0-8.425781-3.28125-16.347656-9.242188-22.308594l-49.335937-49.335937c1.574219-3.152344 2.464844-6.703125 2.464844-10.460938 0-12.976562-10.558594-23.53125-23.53125-23.53125-12.976563 0-23.53125 10.554688-23.53125 23.53125 0 12.976563 10.554687 23.53125 23.53125 23.53125 3.757812 0 7.308593-.886719 10.460937-2.460937l49.335938 49.335937c3.125 3.125 4.847656 7.28125 4.847656 11.699219v62.703125h-32.582031c-4.703125 0-8.53125-3.828125-8.53125-8.535156v-14.085938c0-8.429687-3.28125-16.351562-9.242188-22.308593l-25.285156-25.289063c1.574219-3.152344 2.464844-6.703125 2.464844-10.460937 0-12.976563-10.558594-23.53125-23.535157-23.53125-12.976562 0-23.53125 10.554687-23.53125 23.53125 0 12.976562 10.558594 23.53125 23.53125 23.53125 3.757813 0 7.308594-.890626 10.464844-2.460938l25.285156 25.285156c3.125 3.125 4.847657 7.28125 4.847657 11.703125v14.085938c0 12.976562 10.558593 23.53125 23.53125 23.53125h32.582031v25.082031h-145.324219v-171.886719l184.886719-250.917969 184.886719 250.917969v11.046875c0 4.140625 3.359375 7.5 7.5 7.5s7.5-3.359375 7.5-7.5v-13.511718c0-1.597657-.511719-3.160157-1.460938-4.449219l-192.285156-260.953125c-.246094-.351563-.523437-.683594-.835937-.996094-.621094-.625-1.339844-1.121094-2.109376-1.484375-1.015624-.480469-2.105468-.714844-3.1875-.714844-.003906 0-.011718 0-.015624 0-1.089844 0-2.1875.238281-3.207032.726563-.761718.359375-1.46875.851562-2.085937 1.464844-.3125.3125-.59375.648437-.839844 1.003906l-192.285156 260.953125c-.949219 1.289062-1.460938 2.851562-1.460938 4.449219v174.351562h-17.066406zm344.695313 61.664063c0-4.707032 3.828124-8.53125 8.53125-8.53125 4.707031 0 8.535156 3.824218 8.535156 8.53125 0 4.703124-3.828125 8.53125-8.535156 8.53125-4.703126 0-8.53125-3.828126-8.53125-8.53125zm-32.066407-64.128907c0-4.707031 3.828125-8.53125 8.535157-8.53125 4.703124 0 8.53125 3.828125 8.53125 8.53125s-3.828126 8.53125-8.53125 8.53125c-4.707032 0-8.535157-3.828125-8.535157-8.53125zm-40.078125-64.128906c0-4.707031 3.828125-8.53125 8.53125-8.53125s8.53125 3.828125 8.53125 8.53125-3.828125 8.53125-8.53125 8.53125-8.53125-3.828125-8.53125-8.53125zm-55.597656-55.597656c-4.703125 0-8.53125-3.828125-8.53125-8.53125 0-4.707031 3.828125-8.535157 8.53125-8.535157s8.53125 3.828126 8.53125 8.535157c0 4.703125-3.828125 8.53125-8.53125 8.53125zm-104.210938 128.257812c-4.703124 0-8.53125-3.828125-8.53125-8.53125 0-4.707031 3.828126-8.53125 8.53125-8.53125 4.707032 0 8.535157 3.828125 8.535157 8.53125s-3.828125 8.53125-8.535157 8.53125zm-32.0625 64.128907c-4.707031 0-8.53125-3.828126-8.53125-8.53125 0-4.707032 3.828126-8.53125 8.53125-8.53125 4.703126 0 8.53125 3.824218 8.53125 8.53125 0 4.703124-3.828124 8.53125-8.53125 8.53125zm0 0"/><path d="m212.941406 258.445312c1.574219-3.152343 2.460938-6.703124 2.460938-10.460937 0-12.976563-10.554688-23.53125-23.53125-23.53125-12.972656 0-23.53125 10.554687-23.53125 23.53125s10.558594 23.53125 23.53125 23.53125c3.757812 0 7.308594-.890625 10.464844-2.460937l9.253906 9.253906c3.125 3.125 4.847656 7.28125 4.847656 11.703125v46.152343c0 4.140626 3.359375 7.5 7.5 7.5s7.5-3.359374 7.5-7.5v-46.152343c0-8.429688-3.28125-16.351563-9.242188-22.308594zm-21.070312-1.929687c-4.707032 0-8.53125-3.828125-8.53125-8.53125s3.828125-8.53125 8.53125-8.53125 8.53125 3.828125 8.53125 8.53125-3.828125 8.53125-8.53125 8.53125zm0 0"/></svg>