<svg xmlns="http://www.w3.org/2000/svg" width="15" height="30" viewBox="0 0 15 30">
  <g id="Icon_material-battery-charging-50" data-name="Icon material-battery-charging-50" transform="translate(-10.5 -3)">
    <path id="Path_1" data-name="Path 1" d="M21.7,20.25,16.5,30V21.75h-3l.8-1.5H10.5V31.005A2,2,0,0,0,12.495,33H23.49a2.007,2.007,0,0,0,2.01-2V20.25Z" fill="#4bd529"/>
    <path id="Path_2" data-name="Path 2" d="M23.5,6H21V3H15V6H12.495A2,2,0,0,0,10.5,7.995V20.25h3.8l5.2-9.75v8.25h3l-.8,1.5h3.8V7.995A2,2,0,0,0,23.5,6Z" fill="#4bd529"/>
  </g>
</svg>
