<?xml version="1.0" encoding="iso-8859-1"?>
<!-- Generator: Adobe Illustrator 19.0.0, SVG Export Plug-In . SVG Version: 6.00 Build 0)  -->
<svg version="1.1" id="Capa_1" xmlns="http://www.w3.org/2000/svg" xmlns:xlink="http://www.w3.org/1999/xlink" x="0px" y="0px"
	 viewBox="0 0 512.003 512.003" style="enable-background:new 0 0 512.003 512.003;" xml:space="preserve">
<g>
	<g>
		<path d="M216.772,236.93h9.757c0.936,0,1.696-0.759,1.696-1.696v-3.997c0-2.621-0.202-5.02-0.606-7.2
			c-0.405-2.179-1.066-4.2-1.984-6.061c-0.918-1.861-2.088-3.428-3.508-4.702c-1.42-1.273-3.177-2.271-5.271-2.994
			c-2.094-0.722-4.488-1.084-7.182-1.084c-12.783,0-19.174,7.812-19.174,23.436v21.892c0,2.67,0.19,5.119,0.568,7.349
			c0.379,2.228,1.034,4.353,1.965,6.373c0.931,2.021,2.113,3.723,3.545,5.106c1.433,1.384,3.256,2.486,5.473,3.306
			c2.216,0.82,4.757,1.23,7.622,1.23c2.792,0,5.266-0.422,7.421-1.267c2.155-0.845,3.912-1.959,5.271-3.343
			c1.359-1.384,2.479-3.08,3.361-5.088c0.882-2.008,1.507-4.078,1.874-6.208c0.368-2.131,0.576-4.457,0.625-6.98v-3.887
			c0-0.936-0.759-1.696-1.696-1.696h-9.684c-0.936,0-1.696,0.759-1.696,1.696v5.099c0,1.494-0.061,2.823-0.183,3.986
			c-0.122,1.163-0.355,2.351-0.698,3.563c-0.344,1.212-0.906,2.149-1.69,2.81c-0.783,0.661-1.751,0.992-2.902,0.992
			c-3.869,0-5.803-3.244-5.803-9.734v-28.542c0-6.514,1.934-9.771,5.803-9.771c0.98,0,1.819,0.245,2.517,0.735
			c0.697,0.49,1.224,1.084,1.579,1.782c0.354,0.698,0.637,1.604,0.845,2.718c0.207,1.115,0.336,2.107,0.385,2.976
			c0.049,0.87,0.074,1.905,0.074,3.104v4.401C215.076,236.169,215.835,236.93,216.772,236.93z"/>
	</g>
</g>
<g>
	<g>
		<path d="M268.279,215.292c-2.62-3.208-6.808-4.812-12.563-4.812h-13.322c-1.468,0-2.657,1.19-2.657,2.657v60.88
			c0,1.427,1.156,2.583,2.583,2.582h8.278c1.427,0,2.583-1.156,2.583-2.583v-25.701c2.473-0.024,4.652-0.214,6.538-0.569
			c1.886-0.355,3.637-0.967,5.254-1.837c1.616-0.869,2.939-2.021,3.967-3.453c1.029-1.433,1.83-3.251,2.406-5.455
			c0.575-2.203,0.863-4.799,0.863-7.787C272.209,223.141,270.899,218.5,268.279,215.292z M259.534,229.509c0,0.906,0,1.574,0,2.002
			c0,0.428-0.019,0.998-0.055,1.708c-0.036,0.711-0.091,1.225-0.165,1.543c-0.073,0.318-0.183,0.728-0.33,1.23
			c-0.147,0.503-0.325,0.864-0.533,1.084c-0.208,0.22-0.472,0.477-0.79,0.771c-0.317,0.294-0.685,0.496-1.101,0.606
			c-0.417,0.11-0.9,0.208-1.451,0.294c-0.551,0.086-1.181,0.129-1.892,0.129h-0.002v-18.88c0.882,0,1.66,0.086,2.333,0.257
			c0.674,0.172,1.231,0.367,1.672,0.588c0.44,0.22,0.813,0.575,1.12,1.065c0.305,0.49,0.538,0.924,0.698,1.304
			c0.159,0.38,0.275,0.949,0.349,1.708c0.073,0.759,0.116,1.383,0.128,1.873s0.019,1.212,0.019,2.167
			C259.534,229.081,259.534,229.264,259.534,229.509z"/>
	</g>
</g>
<g>
	<g>
		<path d="M315.651,210.484h-3.038c-2.853,0-5.166,2.313-5.166,5.166v35.975c0,0.05,0,0.123,0,0.221c0,2.327-0.012,4.01-0.036,5.051
			c-0.025,1.041-0.086,2.314-0.184,3.82c-0.098,1.506-0.269,2.565-0.514,3.177s-0.582,1.267-1.01,1.965
			c-0.429,0.698-0.987,1.157-1.672,1.377c-0.685,0.221-1.518,0.331-2.497,0.331c-0.98,0-1.813-0.11-2.498-0.331
			c-0.687-0.22-1.244-0.685-1.672-1.396c-0.428-0.71-0.765-1.372-1.01-1.984s-0.417-1.683-0.514-3.214
			c-0.098-1.53-0.16-2.829-0.183-3.894c-0.025-1.066-0.037-2.774-0.037-5.125v-35.975c0-2.853-2.313-5.166-5.166-5.166h-3.038
			c-2.853,0-5.166,2.313-5.166,5.166v36.379c0,2.106,0.061,4.016,0.179,5.732c0.122,1.714,0.361,3.489,0.716,5.326
			c0.355,1.837,0.827,3.459,1.415,4.867c0.588,1.409,1.371,2.755,2.351,4.041c0.979,1.285,2.131,2.344,3.453,3.177
			c1.323,0.833,2.926,1.494,4.812,1.984c1.885,0.489,4.004,0.734,6.355,0.734c2.35,0,4.468-0.244,6.354-0.734
			c1.886-0.491,3.496-1.151,4.831-1.984c1.335-0.832,2.492-1.891,3.472-3.177c0.979-1.286,1.763-2.633,2.351-4.041
			c0.588-1.408,1.053-3.03,1.396-4.867c0.343-1.837,0.576-3.612,0.698-5.326c0.122-1.713,0.184-3.624,0.184-5.73V215.65
			C320.817,212.797,318.504,210.484,315.651,210.484z"/>
	</g>
</g>
<g>
	<g>
		<path d="M362.909,126.764H149.091c-12.312,0-22.329,10.017-22.329,22.33v79.767c0,4.024,3.262,7.287,7.287,7.287
			c4.025,0,7.287-3.262,7.287-7.287v-79.767c0-4.277,3.479-7.757,7.756-7.757H362.91c4.277,0,7.756,3.48,7.756,7.757v79.543
			c0,4.024,3.262,7.287,7.286,7.287c4.025,0,7.287-3.262,7.287-7.287v-79.543C385.238,136.781,375.221,126.764,362.909,126.764z"/>
	</g>
</g>
<g>
	<g>
		<path d="M377.952,258.906c-4.025,0-7.286,3.262-7.286,7.287v32.207c0,2.072-0.806,4.02-2.272,5.485l-64.511,64.512
			c-1.465,1.465-3.413,2.271-5.485,2.271H149.091c-4.277,0-7.756-3.48-7.756-7.757v-96.95c0-4.024-3.262-7.287-7.287-7.287
			c-4.025,0-7.287,3.262-7.287,7.287v96.95c0,12.313,10.017,22.33,22.329,22.33h149.305c5.966,0,11.573-2.323,15.79-6.54
			l64.51-64.511c4.218-4.217,6.541-9.824,6.541-15.79v-32.208C385.238,262.167,381.976,258.906,377.952,258.906z"/>
	</g>
</g>
<g>
	<g>
		<g>
			<polygon points="68.477,428.176 68.477,428.177 424.867,69.586 			"/>
			<path d="M484.197,246.953c15.332,0,27.806-12.473,27.806-27.805v-15.801c0-15.332-12.473-27.806-27.806-27.806h-26.099v-18.096
				h26.096v0.001c15.332,0,27.806-12.473,27.806-27.805V113.84c0-15.332-12.473-27.806-27.806-27.806h-26.099v-2.207
				c0-16.498-13.422-29.92-29.92-29.92h-2.208V27.807c0.001-15.333-12.473-27.806-27.805-27.806h-15.801
				c-15.332,0-27.806,12.473-27.806,27.806v26.099H336.46V27.807c0-15.333-12.473-27.806-27.805-27.806h-15.801
				c-15.332,0-27.806,12.473-27.806,27.806v26.099h-18.095V27.807c0-15.333-12.475-27.806-27.807-27.806h-15.801
				c-15.332,0-27.806,12.473-27.806,27.806v26.099h-18.096V27.807c0.001-15.333-12.472-27.806-27.804-27.806h-15.801
				c-15.332,0-27.806,12.473-27.806,27.806v26.099h-2.208c-16.498,0-29.92,13.422-29.92,29.92v2.207H27.806
				C12.473,86.034,0,98.507,0,113.839v15.801c0,15.332,12.473,27.805,27.806,27.805h26.099v18.096H27.806
				C12.473,175.542,0,188.016,0,203.348v15.801c0,15.332,12.473,27.805,27.806,27.805h26.099v18.096H27.806
				C12.473,265.049,0,277.523,0,292.854v15.801c0,15.332,12.473,27.806,27.806,27.806h26.099v18.096H27.806
				C12.473,354.557,0,367.031,0,382.362v15.801c0,15.332,12.473,27.806,27.806,27.806h26.099v2.207
				c0,16.498,13.422,29.92,29.92,29.92h2.208v26.099c0,15.332,12.473,27.806,27.806,27.806h15.801
				c15.332,0,27.805-12.473,27.805-27.806v-26.099h18.096v26.099c0,15.332,12.473,27.806,27.806,27.806h15.801
				c15.332,0,27.806-12.473,27.806-27.806v-26.099h18.095v26.099c0,15.332,12.474,27.806,27.806,27.806h15.801
				c15.332,0,27.805-12.473,27.805-27.806v-26.099h18.096v26.099c0,15.332,12.473,27.806,27.806,27.806h15.801
				c15.332,0,27.806-12.473,27.806-27.806v-26.099h2.208c16.498,0,29.92-13.422,29.92-29.92v-2.207h26.099
				c15.332,0,27.806-12.473,27.806-27.806v-15.801c0-15.332-12.473-27.806-27.806-27.806h-26.099v-18.095h26.099
				c15.332,0,27.806-12.474,27.806-27.806v-15.801c0-15.332-12.473-27.806-27.806-27.806h-26.099v-18.096H484.197z M53.905,411.396
				h-0.001H27.806c-7.296,0-13.232-5.936-13.232-13.232v-15.801c0-7.296,5.936-13.232,13.232-13.232h26.099V411.396z
				 M53.905,321.888h-0.001H27.806c-7.296,0-13.232-5.936-13.232-13.233v-15.801c0-7.297,5.936-13.232,13.232-13.232h26.099V321.888
				z M53.905,232.38h-0.001H27.806c-7.296,0-13.232-5.936-13.232-13.232v-15.801c0-7.296,5.936-13.233,13.232-13.233h26.099V232.38z
				 M53.905,142.872h-0.001H27.806c-7.296,0-13.232-5.936-13.232-13.232V113.84c0-7.296,5.936-13.232,13.232-13.232h26.099V142.872z
				 M369.128,27.807h0.001c0-7.296,5.936-13.232,13.232-13.232h15.801c7.296,0,13.232,5.936,13.232,13.232v26.099h-42.266V27.807z
				 M279.62,27.807c0-7.296,5.936-13.232,13.233-13.232h15.801c7.296,0,13.232,5.936,13.232,13.232v26.099H279.62V27.807z
				 M190.112,27.807h0.001c0-7.296,5.936-13.232,13.232-13.232h15.801c7.297,0,13.233,5.936,13.233,13.232v26.099h-42.267V27.807z
				 M100.604,27.807L100.604,27.807c0.001-7.296,5.937-13.232,13.233-13.232h15.801c7.296,0,13.232,5.936,13.232,13.232v26.099
				h-42.266V27.807z M142.872,484.195L142.872,484.195c-0.001,7.297-5.937,13.232-13.233,13.232h-15.801
				c-7.296,0-13.232-5.936-13.232-13.232v-26.099h42.266V484.195z M232.381,484.195h-0.001c0,7.297-5.936,13.232-13.233,13.232
				h-15.801c-7.296,0-13.232-5.936-13.232-13.232v-26.099h42.267V484.195z M321.888,484.195L321.888,484.195
				c-0.001,7.297-5.937,13.232-13.233,13.232h-15.801c-7.297,0-13.233-5.936-13.233-13.232v-26.099h42.267V484.195z
				 M411.396,484.195L411.396,484.195c-0.001,7.297-5.937,13.232-13.233,13.232h-15.801c-7.296,0-13.232-5.936-13.232-13.232
				v-26.099h42.266V484.195z M443.523,86.033v71.412v18.096v71.412v18.096v71.412v18.096v71.412v2.207
				c0,8.463-6.885,15.347-15.347,15.347h-2.208h-71.412H336.46h-71.413h-18.095H175.54h-18.096H86.032h-2.208
				c-8.461,0-15.346-6.884-15.347-15.345l0,0v-0.002V86.034v-2.207c0-8.463,6.885-15.347,15.347-15.347h342.143l-1.1,1.106
				l1.101-1.107h2.208c8.462,0,15.347,6.885,15.347,15.347V86.033z M458.096,100.607h26.099c7.296,0,13.232,5.936,13.232,13.232
				v15.801c0,7.296-5.936,13.232-13.232,13.232h-26.099V100.607z M484.194,369.13L484.194,369.13
				c7.296,0.001,13.232,5.937,13.232,13.233v15.801c0,7.296-5.936,13.232-13.232,13.232h-26.099V369.13H484.194z M484.194,279.622
				c7.296,0,13.232,5.936,13.232,13.232v15.801c0,7.296-5.936,13.233-13.232,13.233h-26.099v-42.266H484.194z M458.095,232.38
				v-42.266h26.099c7.296,0,13.232,5.936,13.232,13.233v15.801c0,7.296-5.936,13.232-13.232,13.232H458.095z"/>
		</g>
	</g>
</g>
<g>
</g>
<g>
</g>
<g>
</g>
<g>
</g>
<g>
</g>
<g>
</g>
<g>
</g>
<g>
</g>
<g>
</g>
<g>
</g>
<g>
</g>
<g>
</g>
<g>
</g>
<g>
</g>
<g>
</g>
</svg>
