<svg xmlns="http://www.w3.org/2000/svg" width="94" height="94" viewBox="0 0 94 94">
  <g id="Group_7" data-name="Group 7" transform="translate(-827 -118)">
    <g id="surface1" transform="translate(827 118)">
      <path id="Path_45" data-name="Path 45" d="M79.9,8.907V0H76.767V7.959A11.045,11.045,0,0,0,75.2,7.833H72.067V0H68.933V7.833h-4.7V0H61.1V7.833H56.4V0H53.267V7.833h-4.7V0H45.433V7.833h-4.7V0H37.6V7.833H32.9V0H29.767V7.833h-4.7V0H21.933V7.833H18.8a11.047,11.047,0,0,0-1.567.125V0H14.1V8.907A11.02,11.02,0,0,0,8.907,14.1H0v3.133H7.959A11.047,11.047,0,0,0,7.833,18.8v3.133H0v3.133H7.833v4.7H0V32.9H7.833v4.7H0v3.133H7.833v4.7H0v3.133H7.833v4.7H0V56.4H7.833v4.7H0v3.133H7.833v4.7H0v3.133H7.833V75.2a11.045,11.045,0,0,0,.125,1.567H0V79.9H8.907A11.02,11.02,0,0,0,14.1,85.094V94h3.133V86.041a11.041,11.041,0,0,0,1.567.125h3.133V94h3.133V86.167h4.7V94H32.9V86.167h4.7V94h3.133V86.167h4.7V94h3.133V86.167h4.7V94H56.4V86.167h4.7V94h3.133V86.167h4.7V94h3.133V86.167H75.2a11.039,11.039,0,0,0,1.567-.125V94H79.9V85.094A11.02,11.02,0,0,0,85.094,79.9H94V76.767H86.041a11.039,11.039,0,0,0,.125-1.567V72.067H94V68.933H86.167v-4.7H94V61.1H86.167V56.4H94V53.267H86.167v-4.7H94V45.433H86.167v-4.7H94V37.6H86.167V32.9H94V29.767H86.167v-4.7H94V21.933H86.167V18.8a11.041,11.041,0,0,0-.125-1.567H94V14.1H85.094A11.02,11.02,0,0,0,79.9,8.907ZM83.033,75.2A7.843,7.843,0,0,1,75.2,83.033H18.8A7.843,7.843,0,0,1,10.967,75.2V18.8A7.843,7.843,0,0,1,18.8,10.967H75.2A7.843,7.843,0,0,1,83.033,18.8Zm0,0"/>
      <path id="Path_46" data-name="Path 46" d="M182.967,125H129.7a4.7,4.7,0,0,0-4.7,4.7v53.267a4.7,4.7,0,0,0,4.7,4.7h53.267a4.7,4.7,0,0,0,4.7-4.7V129.7A4.7,4.7,0,0,0,182.967,125Zm1.567,57.967a1.566,1.566,0,0,1-1.567,1.567H129.7a1.566,1.566,0,0,1-1.567-1.567V129.7a1.566,1.566,0,0,1,1.567-1.567h53.267a1.566,1.566,0,0,1,1.567,1.567Zm0,0" transform="translate(-109.333 -109.333)"/>
      <path id="Path_47" data-name="Path 47" d="M550,175h3.133v3.133H550Zm0,0" transform="translate(-481.067 -153.067)"/>
      <path id="Path_48" data-name="Path 48" d="M175,550h3.133v3.133H175Zm0,0" transform="translate(-153.067 -481.067)"/>
      <path id="Path_49" data-name="Path 49" d="M175,178.133v4.7h3.133v-4.7h4.7V175h-4.7A3.133,3.133,0,0,0,175,178.133Zm0,0" transform="translate(-153.067 -153.067)"/>
      <path id="Path_50" data-name="Path 50" d="M517.2,517.2h-4.7v3.133h7.833V512.5H517.2Zm0,0" transform="translate(-448.267 -448.267)"/>
    </g>
    <g id="graph" transform="translate(852.059 144.966)">
      <g id="Group_6" data-name="Group 6" transform="translate(0 0)">
        <path id="Path_51" data-name="Path 51" d="M43.037,38.087H32.911a.859.859,0,0,0-.784.547l-2.375,5.947-1.926-8.342a.844.844,0,0,0-1.647.013L21.45,57.874,18.562,25.387a.844.844,0,0,0-.7-.758.833.833,0,0,0-.91.473L10.422,39.775H.844a.844.844,0,1,0,0,1.688H10.97a.829.829,0,0,0,.771-.485l5.428-12.2,3.087,34.733a.846.846,0,0,0,.787.77l.054,0a.843.843,0,0,0,.824-.663l5.1-23.336,1.687,7.312a.844.844,0,0,0,.757.652.855.855,0,0,0,.848-.544l3.163-7.925h9.555a.844.844,0,1,0,0-1.688Z" transform="translate(0 -24.618)"/>
      </g>
    </g>
  </g>
</svg>
