<svg xmlns="http://www.w3.org/2000/svg" width="33.567" height="46.667" viewBox="0 0 33.567 46.667">
  <g id="Group_13" data-name="Group 13" transform="translate(74.883 -723.666)">
    <g id="Group_12" data-name="Group 12">
      <g id="Group_11" data-name="Group 11" transform="translate(-131 -2)">
        <g id="Icon_feather-smartphone" data-name="Icon feather-smartphone" transform="translate(50.117 724.166)">
          <path id="Path_3" data-name="Path 3" d="M11.867,3H33.7a4.367,4.367,0,0,1,4.367,4.367V42.3A4.367,4.367,0,0,1,33.7,46.667H11.867A4.367,4.367,0,0,1,7.5,42.3V7.367A4.367,4.367,0,0,1,11.867,3Z" transform="translate(0 0)" fill="none" stroke="#5b7eec" stroke-linecap="round" stroke-linejoin="round" stroke-width="3"/>
          <path id="Path_4" data-name="Path 4" d="M18,27h0" transform="translate(4.783 10.934)" fill="none" stroke="#5b7eec" stroke-linecap="round" stroke-linejoin="round" stroke-width="3"/>
        </g>
      </g>
      <g id="Union_1" data-name="Union 1" transform="translate(21.692 971.292) rotate(59)" fill="#fff">
        <path d="M -250.3494110107422 -44.48074722290039 C -250.5197143554688 -44.48074722290039 -250.6815490722656 -44.5310173034668 -250.7934265136719 -44.61866760253906 L -254.0639190673828 -47.18268966674805 C -254.1529083251953 -47.25240707397461 -254.2383422851563 -47.36360931396484 -254.1406555175781 -47.49784851074219 L -254.1212005615234 -47.52458953857422 L -254.1054382324219 -47.55365753173828 C -254.0664520263672 -47.62553024291992 -253.9997253417969 -47.68083953857422 -253.92236328125 -47.70541000366211 L -253.8362579345703 -47.73274993896484 L -253.7651519775391 -47.78850936889648 L -250.7185668945313 -50.17754745483398 C -250.6183624267578 -50.25609970092773 -250.4726715087891 -50.30117034912109 -250.3189086914063 -50.30117034912109 C -250.1653594970703 -50.30117034912109 -250.0200805664063 -50.25621795654297 -249.9203186035156 -50.17783737182617 C -249.8538360595703 -50.12587738037109 -249.8177795410156 -50.0687370300293 -249.8177795410156 -50.01614761352539 C -249.8177795410156 -49.96355819702148 -249.8538360595703 -49.90641784667969 -249.9193115234375 -49.85523986816406 L -251.5026397705078 -48.6136474609375 L -252.6419982910156 -47.72019958496094 L -251.194091796875 -47.72019958496094 L -214.2900085449219 -47.72019958496094 C -214.1151123046875 -47.72019958496094 -213.9728088378906 -47.57789993286133 -213.9728088378906 -47.40299987792969 C -213.9728088378906 -47.22809982299805 -214.1151123046875 -47.08580017089844 -214.2900085449219 -47.08580017089844 L -251.1037750244141 -47.08580017089844 L -252.5515441894531 -47.08580017089844 L -251.4123382568359 -46.19235992431641 L -249.9055633544922 -45.01065826416016 C -249.8282928466797 -44.95015716552734 -249.7858734130859 -44.88076782226563 -249.7858428955078 -44.81504058837891 C -249.7857971191406 -44.74897766113281 -249.8283996582031 -44.67913055419922 -249.9058074951172 -44.61833953857422 C -250.0172424316406 -44.5310173034668 -250.1790924072266 -44.48074722290039 -250.3494110107422 -44.48074722290039 Z" stroke="none"/>
        <path d="M -250.3494110107422 -43.98074722290039 C -250.6216583251953 -43.98074722290039 -250.8939056396484 -44.06219863891602 -251.101806640625 -44.22509765625 L -254.3724060058594 -46.78919982910156 C -254.7192230224609 -47.06094741821289 -254.7767028808594 -47.47354888916016 -254.5449523925781 -47.79203796386719 C -254.4450531005859 -47.97623062133789 -254.2764739990234 -48.11756896972656 -254.0736846923828 -48.18195724487305 L -251.027099609375 -50.57099914550781 C -250.8313446044922 -50.72444915771484 -250.5750732421875 -50.80117416381836 -250.3189086914063 -50.80117416381836 C -250.062744140625 -50.80117416381836 -249.8067016601563 -50.72444915771484 -249.6114044189453 -50.57099914550781 C -249.2199096679688 -50.26499938964844 -249.2199096679688 -49.76729965209961 -249.6114044189453 -49.46129989624023 L -251.194091796875 -48.22019958496094 L -214.2900085449219 -48.22019958496094 C -213.8382110595703 -48.22019958496094 -213.4728088378906 -47.85479736328125 -213.4728088378906 -47.40299987792969 C -213.4728088378906 -46.95209884643555 -213.8382110595703 -46.58580017089844 -214.2900085449219 -46.58580017089844 L -251.1037750244141 -46.58580017089844 L -249.5970001220703 -45.40409851074219 C -249.1821136474609 -45.07920074462891 -249.1821136474609 -44.55089950561523 -249.5970001220703 -44.22509765625 C -249.8049011230469 -44.06219863891602 -250.0771636962891 -43.98074722290039 -250.3494110107422 -43.98074722290039 Z" stroke="none" fill="#5b7eec"/>
      </g>
    </g>
  </g>
</svg>
